<?xml version="1.0" encoding="utf-8"?>
<!-- Generator: Adobe Illustrator 16.0.0, SVG Export Plug-In . SVG Version: 6.00 Build 0)  -->
<!DOCTYPE svg PUBLIC "-//W3C//DTD SVG 1.1//EN" "http://www.w3.org/Graphics/SVG/1.1/DTD/svg11.dtd">
<svg version="1.1" id="Layer_1" xmlns="http://www.w3.org/2000/svg" xmlns:xlink="http://www.w3.org/1999/xlink" x="0px" y="0px"
	 width="112.25px" height="21.917px" viewBox="0 0 112.25 21.917" enable-background="new 0 0 112.25 21.917" xml:space="preserve">
<text transform="matrix(1 0 0 1 -437.375 52.2007)" font-family="'Righteous-Regular'" font-size="69.0109">Hallooou</text>
<g enable-background="new    ">
	<path fill="#FFFFFF" d="M15.66,1.874V20.5h-3.594V12.55H3.619v7.947H0V1.874h3.619v7.529h8.446V1.874H15.66z"/>
	<path fill="#FFFFFF" d="M22.952,20.761c-0.665,0-1.286-0.111-1.863-0.328c-0.577-0.221-1.075-0.525-1.495-0.918
		c-0.42-0.396-0.748-0.854-0.983-1.378c-0.237-0.525-0.354-1.103-0.354-1.731c0-0.646,0.144-1.244,0.432-1.797
		c0.289-0.55,0.69-1.018,1.207-1.402c0.516-0.385,1.132-0.688,1.849-0.906c0.717-0.217,1.504-0.328,2.36-0.328
		c0.612,0,1.211,0.054,1.797,0.158s1.105,0.254,1.561,0.445v-0.787c0-0.909-0.259-1.608-0.775-2.098
		c-0.515-0.488-1.28-0.734-2.294-0.734c-0.735,0-1.452,0.131-2.15,0.393c-0.701,0.262-1.418,0.648-2.151,1.154l-1.077-2.229
		c1.767-1.171,3.674-1.758,5.72-1.758c1.976,0,3.51,0.485,4.603,1.457c1.093,0.972,1.639,2.373,1.639,4.208v4.276
		c0,0.367,0.07,0.629,0.21,0.787c0.14,0.157,0.384,0.244,0.735,0.262V20.5c-0.333,0.068-0.643,0.117-0.933,0.142
		c-0.287,0.026-0.538,0.042-0.747,0.042c-0.665-0.018-1.172-0.172-1.522-0.458c-0.349-0.291-0.567-0.679-0.655-1.169l-0.079-0.762
		c-0.613,0.806-1.355,1.418-2.23,1.838C24.883,20.55,23.948,20.761,22.952,20.761z M23.948,18.188c0.593,0,1.159-0.104,1.691-0.313
		c0.534-0.211,0.948-0.49,1.246-0.84c0.385-0.298,0.578-0.629,0.578-0.994v-1.574c-0.421-0.157-0.875-0.283-1.365-0.383
		c-0.49-0.096-0.961-0.142-1.416-0.142c-0.91,0-1.653,0.204-2.23,0.615c-0.577,0.411-0.865,0.933-0.865,1.562
		c0,0.594,0.227,1.086,0.682,1.48C22.724,17.992,23.283,18.188,23.948,18.188z"/>
	<path fill="#FFFFFF" d="M34.309,1.349h3.515v14.584c0,1.066,0.48,1.602,1.442,1.602c0.193,0,0.416-0.035,0.669-0.104
		c0.254-0.071,0.495-0.149,0.722-0.239l0.472,2.807c-0.472,0.229-1.024,0.404-1.653,0.528c-0.629,0.12-1.198,0.183-1.706,0.183
		c-1.102,0-1.954-0.293-2.556-0.879c-0.604-0.586-0.906-1.42-0.906-2.506L34.309,1.349L34.309,1.349z"/>
	<path fill="#FFFFFF" d="M42.623,1.349h3.516v14.584c0,1.066,0.48,1.602,1.442,1.602c0.192,0,0.416-0.035,0.668-0.104
		c0.253-0.071,0.495-0.149,0.723-0.239l0.472,2.807c-0.472,0.229-1.023,0.404-1.652,0.528c-0.63,0.12-1.199,0.183-1.706,0.183
		c-1.101,0-1.954-0.293-2.559-0.879c-0.601-0.586-0.904-1.42-0.904-2.506V1.349z"/>
	<path fill="#FFFFFF" d="M57.232,20.761c-1.119,0-2.124-0.193-3.017-0.579c-0.891-0.384-1.647-0.905-2.269-1.56
		c-0.621-0.656-1.097-1.414-1.43-2.269c-0.333-0.858-0.499-1.761-0.499-2.702c0-0.963,0.167-1.871,0.499-2.73
		c0.333-0.857,0.809-1.613,1.43-2.269c0.621-0.655,1.377-1.176,2.269-1.559c0.893-0.385,1.898-0.579,3.017-0.579
		c1.119,0,2.121,0.194,3.004,0.579c0.884,0.383,1.638,0.904,2.258,1.559c0.619,0.656,1.097,1.412,1.427,2.269
		c0.334,0.859,0.5,1.767,0.5,2.73c0,0.941-0.166,1.844-0.5,2.702c-0.33,0.854-0.804,1.61-1.416,2.269
		c-0.612,0.653-1.362,1.176-2.255,1.56C59.355,20.568,58.354,20.761,57.232,20.761z M53.64,13.653c0,0.611,0.093,1.167,0.276,1.666
		c0.184,0.496,0.437,0.929,0.761,1.296c0.323,0.368,0.704,0.652,1.142,0.854c0.436,0.201,0.91,0.303,1.416,0.303
		c0.507,0,0.979-0.102,1.416-0.303c0.438-0.2,0.817-0.484,1.143-0.854c0.323-0.367,0.577-0.802,0.762-1.312
		c0.184-0.504,0.274-1.062,0.274-1.676c0-0.594-0.091-1.146-0.274-1.654c-0.185-0.506-0.438-0.942-0.762-1.312
		c-0.324-0.366-0.705-0.648-1.143-0.85s-0.909-0.303-1.416-0.303c-0.506,0-0.979,0.104-1.416,0.315
		c-0.438,0.21-0.818,0.498-1.142,0.866C54.353,11.055,54.1,11.492,53.916,12C53.732,12.505,53.64,13.058,53.64,13.653z"/>
	<path fill="#FFFFFF" d="M73.104,20.761c-1.117,0-2.125-0.193-3.016-0.579c-0.895-0.384-1.65-0.905-2.27-1.56
		c-0.623-0.656-1.1-1.414-1.432-2.269c-0.33-0.858-0.496-1.761-0.496-2.702c0-0.963,0.166-1.871,0.496-2.73
		c0.332-0.857,0.809-1.613,1.432-2.269c0.619-0.655,1.375-1.176,2.27-1.559c0.891-0.385,1.896-0.579,3.016-0.579
		s2.121,0.194,3.002,0.579c0.886,0.383,1.637,0.904,2.256,1.559c0.621,0.656,1.1,1.412,1.433,2.269
		c0.33,0.859,0.496,1.767,0.496,2.73c0,0.941-0.166,1.844-0.496,2.702c-0.333,0.854-0.808,1.61-1.418,2.269
		c-0.612,0.653-1.362,1.176-2.255,1.56C75.229,20.568,74.223,20.761,73.104,20.761z M69.509,13.653c0,0.611,0.091,1.167,0.275,1.666
		c0.184,0.496,0.437,0.929,0.761,1.296c0.324,0.368,0.706,0.652,1.143,0.854c0.438,0.201,0.908,0.303,1.416,0.303
		c0.506,0,0.979-0.102,1.418-0.303c0.435-0.2,0.817-0.484,1.141-0.854c0.322-0.367,0.576-0.802,0.759-1.312
		c0.185-0.504,0.278-1.062,0.278-1.676c0-0.594-0.094-1.146-0.278-1.654c-0.183-0.506-0.437-0.942-0.759-1.312
		c-0.322-0.366-0.706-0.648-1.141-0.85c-0.438-0.202-0.912-0.303-1.418-0.303c-0.508,0-0.979,0.104-1.416,0.315
		c-0.437,0.21-0.817,0.498-1.143,0.866c-0.324,0.367-0.577,0.804-0.761,1.312C69.6,12.505,69.509,13.058,69.509,13.653z"/>
	<path fill="#FFFFFF" d="M88.971,20.761c-1.117,0-2.123-0.193-3.015-0.579c-0.892-0.384-1.649-0.905-2.271-1.56
		c-0.621-0.656-1.096-1.414-1.429-2.269c-0.332-0.858-0.497-1.761-0.497-2.702c0-0.963,0.165-1.871,0.497-2.73
		c0.333-0.857,0.808-1.613,1.429-2.269c0.619-0.655,1.379-1.176,2.271-1.559c0.892-0.385,1.897-0.579,3.015-0.579
		c1.121,0,2.125,0.194,3.006,0.579c0.883,0.383,1.633,0.904,2.254,1.559c0.621,0.656,1.1,1.412,1.433,2.269
		c0.332,0.859,0.497,1.767,0.497,2.73c0,0.941-0.165,1.844-0.497,2.702c-0.333,0.854-0.804,1.61-1.418,2.269
		c-0.611,0.653-1.363,1.176-2.254,1.56C91.098,20.568,90.092,20.761,88.971,20.761z M85.379,13.653c0,0.611,0.092,1.167,0.273,1.666
		c0.186,0.496,0.438,0.929,0.763,1.296c0.323,0.368,0.702,0.652,1.14,0.854s0.911,0.303,1.416,0.303c0.51,0,0.981-0.102,1.418-0.303
		c0.438-0.2,0.817-0.484,1.143-0.854c0.322-0.367,0.576-0.802,0.76-1.312c0.184-0.504,0.275-1.062,0.275-1.676
		c0-0.594-0.094-1.146-0.275-1.654c-0.184-0.506-0.438-0.942-0.76-1.312c-0.324-0.366-0.703-0.648-1.143-0.85
		c-0.437-0.202-0.908-0.303-1.418-0.303c-0.505,0-0.979,0.104-1.416,0.315c-0.438,0.21-0.816,0.498-1.14,0.866
		c-0.325,0.367-0.577,0.804-0.763,1.312C85.471,12.505,85.379,13.058,85.379,13.653z"/>
	<path fill="#FFFFFF" d="M102.663,20.761c-1.415,0-2.491-0.455-3.226-1.365c-0.734-0.909-1.103-2.257-1.103-4.039V6.752h3.517v7.841
		c0,2.117,0.76,3.177,2.281,3.177c0.698,0,1.367-0.205,2.008-0.614c0.637-0.414,1.157-1.037,1.561-1.88V6.752h3.513v9.707
		c0,0.365,0.071,0.629,0.211,0.787c0.142,0.156,0.386,0.242,0.735,0.262v2.99c-0.366,0.069-0.691,0.117-0.971,0.143
		c-0.279,0.027-0.525,0.042-0.734,0.042c-0.631,0-1.124-0.144-1.48-0.433c-0.358-0.289-0.584-0.688-0.67-1.194l-0.078-1.128
		c-0.629,0.943-1.424,1.652-2.373,2.125C104.898,20.526,103.836,20.761,102.663,20.761z"/>
</g>
</svg>
